<mxfile host="app.diagrams.net" agent="Mozilla/5.0 (X11; Linux x86_64) AppleWebKit/537.36 (KHTML, like Gecko) Chrome/128.0.0.0 Safari/537.36" version="26.0.4">
  <diagram name="Page-1" id="rRFXWnT0ynGTG0CkEvUE">
    <mxGraphModel dx="2677" dy="895" grid="1" gridSize="10" guides="1" tooltips="1" connect="1" arrows="1" fold="1" page="1" pageScale="1" pageWidth="850" pageHeight="1100" math="0" shadow="0">
      <root>
        <mxCell id="0" />
        <mxCell id="1" parent="0" />
        <mxCell id="fJmlveyHdBU51Vy1_YlL-3" value="" style="edgeStyle=orthogonalEdgeStyle;rounded=0;orthogonalLoop=1;jettySize=auto;html=1;" parent="1" source="fJmlveyHdBU51Vy1_YlL-1" target="fJmlveyHdBU51Vy1_YlL-2" edge="1">
          <mxGeometry relative="1" as="geometry" />
        </mxCell>
        <mxCell id="fJmlveyHdBU51Vy1_YlL-1" value="INPUT" style="rounded=0;whiteSpace=wrap;html=1;" parent="1" vertex="1">
          <mxGeometry x="50" y="40" width="120" height="60" as="geometry" />
        </mxCell>
        <mxCell id="fJmlveyHdBU51Vy1_YlL-7" value="" style="edgeStyle=orthogonalEdgeStyle;rounded=0;orthogonalLoop=1;jettySize=auto;html=1;" parent="1" source="fJmlveyHdBU51Vy1_YlL-2" target="fJmlveyHdBU51Vy1_YlL-5" edge="1">
          <mxGeometry relative="1" as="geometry" />
        </mxCell>
        <mxCell id="fJmlveyHdBU51Vy1_YlL-2" value="$&amp;gt; ls -l | grep .. | wc -l &amp;gt; ex.txt" style="rounded=0;whiteSpace=wrap;html=1;" parent="1" vertex="1">
          <mxGeometry x="250" y="40" width="230" height="60" as="geometry" />
        </mxCell>
        <mxCell id="fJmlveyHdBU51Vy1_YlL-146" value="" style="edgeStyle=orthogonalEdgeStyle;rounded=0;orthogonalLoop=1;jettySize=auto;html=1;" parent="1" source="fJmlveyHdBU51Vy1_YlL-5" target="fJmlveyHdBU51Vy1_YlL-13" edge="1">
          <mxGeometry relative="1" as="geometry" />
        </mxCell>
        <mxCell id="fJmlveyHdBU51Vy1_YlL-148" value="" style="edgeStyle=orthogonalEdgeStyle;rounded=0;orthogonalLoop=1;jettySize=auto;html=1;" parent="1" source="fJmlveyHdBU51Vy1_YlL-5" target="fJmlveyHdBU51Vy1_YlL-15" edge="1">
          <mxGeometry relative="1" as="geometry" />
        </mxCell>
        <mxCell id="fJmlveyHdBU51Vy1_YlL-5" value="Check syntax" style="rounded=0;whiteSpace=wrap;html=1;" parent="1" vertex="1">
          <mxGeometry x="305" y="130" width="120" height="60" as="geometry" />
        </mxCell>
        <mxCell id="fJmlveyHdBU51Vy1_YlL-19" value="" style="edgeStyle=orthogonalEdgeStyle;rounded=0;orthogonalLoop=1;jettySize=auto;html=1;" parent="1" source="fJmlveyHdBU51Vy1_YlL-8" target="fJmlveyHdBU51Vy1_YlL-18" edge="1">
          <mxGeometry relative="1" as="geometry" />
        </mxCell>
        <mxCell id="fJmlveyHdBU51Vy1_YlL-8" value="Start the placement in token" style="rounded=0;whiteSpace=wrap;html=1;" parent="1" vertex="1">
          <mxGeometry x="150" y="240" width="160" height="60" as="geometry" />
        </mxCell>
        <mxCell id="fJmlveyHdBU51Vy1_YlL-17" value="" style="edgeStyle=orthogonalEdgeStyle;rounded=0;orthogonalLoop=1;jettySize=auto;html=1;" parent="1" source="fJmlveyHdBU51Vy1_YlL-9" target="fJmlveyHdBU51Vy1_YlL-16" edge="1">
          <mxGeometry relative="1" as="geometry" />
        </mxCell>
        <mxCell id="fJmlveyHdBU51Vy1_YlL-9" value="STOP" style="rounded=0;whiteSpace=wrap;html=1;" parent="1" vertex="1">
          <mxGeometry x="432.5" y="240" width="120" height="60" as="geometry" />
        </mxCell>
        <mxCell id="fJmlveyHdBU51Vy1_YlL-147" value="" style="edgeStyle=orthogonalEdgeStyle;rounded=0;orthogonalLoop=1;jettySize=auto;html=1;" parent="1" source="fJmlveyHdBU51Vy1_YlL-13" target="fJmlveyHdBU51Vy1_YlL-8" edge="1">
          <mxGeometry relative="1" as="geometry" />
        </mxCell>
        <mxCell id="fJmlveyHdBU51Vy1_YlL-13" value="TRUE" style="ellipse;whiteSpace=wrap;html=1;" parent="1" vertex="1">
          <mxGeometry x="195" y="140" width="70" height="40" as="geometry" />
        </mxCell>
        <mxCell id="fJmlveyHdBU51Vy1_YlL-149" value="" style="edgeStyle=orthogonalEdgeStyle;rounded=0;orthogonalLoop=1;jettySize=auto;html=1;" parent="1" source="fJmlveyHdBU51Vy1_YlL-15" target="fJmlveyHdBU51Vy1_YlL-9" edge="1">
          <mxGeometry relative="1" as="geometry" />
        </mxCell>
        <mxCell id="fJmlveyHdBU51Vy1_YlL-15" value="FALSE" style="ellipse;whiteSpace=wrap;html=1;" parent="1" vertex="1">
          <mxGeometry x="457.5" y="140" width="70" height="40" as="geometry" />
        </mxCell>
        <mxCell id="fJmlveyHdBU51Vy1_YlL-16" value="END&lt;div&gt;(But do not quit the minishell)&lt;/div&gt;" style="rounded=0;whiteSpace=wrap;html=1;" parent="1" vertex="1">
          <mxGeometry x="585" y="240" width="160" height="60" as="geometry" />
        </mxCell>
        <mxCell id="fJmlveyHdBU51Vy1_YlL-18" value="ls -l | grep .. | wc -l &amp;gt; ex.txt" style="whiteSpace=wrap;html=1;rounded=0;" parent="1" vertex="1">
          <mxGeometry x="90" y="330" width="280" height="60" as="geometry" />
        </mxCell>
        <mxCell id="fJmlveyHdBU51Vy1_YlL-33" value="" style="edgeStyle=orthogonalEdgeStyle;rounded=0;orthogonalLoop=1;jettySize=auto;html=1;" parent="1" source="fJmlveyHdBU51Vy1_YlL-23" target="fJmlveyHdBU51Vy1_YlL-25" edge="1">
          <mxGeometry relative="1" as="geometry" />
        </mxCell>
        <mxCell id="fJmlveyHdBU51Vy1_YlL-23" value="&quot;ls&quot;&lt;div&gt;Token word&lt;/div&gt;" style="whiteSpace=wrap;html=1;rounded=0;" parent="1" vertex="1">
          <mxGeometry y="410" width="80" height="60" as="geometry" />
        </mxCell>
        <mxCell id="fJmlveyHdBU51Vy1_YlL-34" value="" style="edgeStyle=orthogonalEdgeStyle;rounded=0;orthogonalLoop=1;jettySize=auto;html=1;" parent="1" source="fJmlveyHdBU51Vy1_YlL-25" target="fJmlveyHdBU51Vy1_YlL-26" edge="1">
          <mxGeometry relative="1" as="geometry" />
        </mxCell>
        <mxCell id="fJmlveyHdBU51Vy1_YlL-25" value="&quot;-l&quot;&lt;div&gt;Token word&lt;/div&gt;" style="whiteSpace=wrap;html=1;rounded=0;" parent="1" vertex="1">
          <mxGeometry x="110" y="410" width="75" height="60" as="geometry" />
        </mxCell>
        <mxCell id="fJmlveyHdBU51Vy1_YlL-35" value="" style="edgeStyle=orthogonalEdgeStyle;rounded=0;orthogonalLoop=1;jettySize=auto;html=1;" parent="1" source="fJmlveyHdBU51Vy1_YlL-26" target="fJmlveyHdBU51Vy1_YlL-30" edge="1">
          <mxGeometry relative="1" as="geometry" />
        </mxCell>
        <mxCell id="fJmlveyHdBU51Vy1_YlL-41" value="" style="edgeStyle=orthogonalEdgeStyle;rounded=0;orthogonalLoop=1;jettySize=auto;html=1;" parent="1" source="fJmlveyHdBU51Vy1_YlL-26" target="fJmlveyHdBU51Vy1_YlL-40" edge="1">
          <mxGeometry relative="1" as="geometry" />
        </mxCell>
        <mxCell id="fJmlveyHdBU51Vy1_YlL-26" value="&quot;|&quot;&lt;div&gt;Token pipe&lt;/div&gt;" style="whiteSpace=wrap;html=1;rounded=0;" parent="1" vertex="1">
          <mxGeometry x="205" y="410" width="80" height="60" as="geometry" />
        </mxCell>
        <mxCell id="fJmlveyHdBU51Vy1_YlL-58" value="" style="edgeStyle=orthogonalEdgeStyle;rounded=0;orthogonalLoop=1;jettySize=auto;html=1;" parent="1" source="fJmlveyHdBU51Vy1_YlL-27" target="fJmlveyHdBU51Vy1_YlL-57" edge="1">
          <mxGeometry relative="1" as="geometry" />
        </mxCell>
        <mxCell id="fJmlveyHdBU51Vy1_YlL-27" value="&quot;wc&quot;&lt;div&gt;Token word&lt;/div&gt;" style="whiteSpace=wrap;html=1;rounded=0;" parent="1" vertex="1">
          <mxGeometry x="620" y="410" width="70" height="60" as="geometry" />
        </mxCell>
        <mxCell id="fJmlveyHdBU51Vy1_YlL-38" value="" style="edgeStyle=orthogonalEdgeStyle;rounded=0;orthogonalLoop=1;jettySize=auto;html=1;" parent="1" source="fJmlveyHdBU51Vy1_YlL-28" target="fJmlveyHdBU51Vy1_YlL-27" edge="1">
          <mxGeometry relative="1" as="geometry" />
        </mxCell>
        <mxCell id="fJmlveyHdBU51Vy1_YlL-145" value="" style="edgeStyle=orthogonalEdgeStyle;rounded=0;orthogonalLoop=1;jettySize=auto;html=1;" parent="1" source="fJmlveyHdBU51Vy1_YlL-28" target="fJmlveyHdBU51Vy1_YlL-40" edge="1">
          <mxGeometry relative="1" as="geometry" />
        </mxCell>
        <mxCell id="fJmlveyHdBU51Vy1_YlL-28" value="&quot;|&quot;&lt;div&gt;Token pipe&lt;br&gt;&lt;/div&gt;" style="whiteSpace=wrap;html=1;rounded=0;" parent="1" vertex="1">
          <mxGeometry x="513.75" y="411.25" width="90" height="60" as="geometry" />
        </mxCell>
        <mxCell id="fJmlveyHdBU51Vy1_YlL-37" value="" style="edgeStyle=orthogonalEdgeStyle;rounded=0;orthogonalLoop=1;jettySize=auto;html=1;" parent="1" source="fJmlveyHdBU51Vy1_YlL-29" target="fJmlveyHdBU51Vy1_YlL-28" edge="1">
          <mxGeometry relative="1" as="geometry" />
        </mxCell>
        <mxCell id="fJmlveyHdBU51Vy1_YlL-29" value="&quot;..&quot;&lt;div&gt;Token word&lt;/div&gt;" style="whiteSpace=wrap;html=1;rounded=0;" parent="1" vertex="1">
          <mxGeometry x="410" y="410" width="80" height="60" as="geometry" />
        </mxCell>
        <mxCell id="fJmlveyHdBU51Vy1_YlL-36" value="" style="edgeStyle=orthogonalEdgeStyle;rounded=0;orthogonalLoop=1;jettySize=auto;html=1;" parent="1" source="fJmlveyHdBU51Vy1_YlL-30" target="fJmlveyHdBU51Vy1_YlL-29" edge="1">
          <mxGeometry relative="1" as="geometry" />
        </mxCell>
        <mxCell id="fJmlveyHdBU51Vy1_YlL-30" value="&quot;grep&quot;&lt;div&gt;Token word&lt;/div&gt;" style="whiteSpace=wrap;html=1;rounded=0;" parent="1" vertex="1">
          <mxGeometry x="305" y="410" width="80" height="60" as="geometry" />
        </mxCell>
        <mxCell id="fJmlveyHdBU51Vy1_YlL-31" value="chain list" style="ellipse;whiteSpace=wrap;html=1;" parent="1" vertex="1">
          <mxGeometry x="372.5" y="340" width="85" height="60" as="geometry" />
        </mxCell>
        <mxCell id="fJmlveyHdBU51Vy1_YlL-32" value="NULL" style="whiteSpace=wrap;html=1;rounded=0;" parent="1" vertex="1">
          <mxGeometry x="1000" y="420" width="60" height="40" as="geometry" />
        </mxCell>
        <mxCell id="fJmlveyHdBU51Vy1_YlL-44" value="" style="edgeStyle=orthogonalEdgeStyle;rounded=0;orthogonalLoop=1;jettySize=auto;html=1;" parent="1" source="fJmlveyHdBU51Vy1_YlL-40" target="fJmlveyHdBU51Vy1_YlL-43" edge="1">
          <mxGeometry relative="1" as="geometry" />
        </mxCell>
        <mxCell id="fJmlveyHdBU51Vy1_YlL-109" value="" style="edgeStyle=orthogonalEdgeStyle;rounded=0;orthogonalLoop=1;jettySize=auto;html=1;" parent="1" source="fJmlveyHdBU51Vy1_YlL-40" target="fJmlveyHdBU51Vy1_YlL-95" edge="1">
          <mxGeometry relative="1" as="geometry" />
        </mxCell>
        <mxCell id="fJmlveyHdBU51Vy1_YlL-40" value="In case of a pipe i need to add all before in a struct and after this in a the same struct" style="ellipse;whiteSpace=wrap;html=1;rounded=0;" parent="1" vertex="1">
          <mxGeometry x="250" y="590" width="311.87" height="90" as="geometry" />
        </mxCell>
        <mxCell id="fJmlveyHdBU51Vy1_YlL-47" value="" style="edgeStyle=orthogonalEdgeStyle;rounded=0;orthogonalLoop=1;jettySize=auto;html=1;" parent="1" source="fJmlveyHdBU51Vy1_YlL-43" target="fJmlveyHdBU51Vy1_YlL-45" edge="1">
          <mxGeometry relative="1" as="geometry" />
        </mxCell>
        <mxCell id="fJmlveyHdBU51Vy1_YlL-43" value="&lt;blockquote style=&quot;margin: 0 0 0 40px; border: none; padding: 0px;&quot;&gt;typedef struct t_command&lt;/blockquote&gt;&lt;blockquote style=&quot;margin: 0 0 0 40px; border: none; padding: 0px;&quot;&gt;&lt;span style=&quot;white-space: pre;&quot;&gt;&#x9;&lt;/span&gt;int **arg;&lt;br&gt;&lt;/blockquote&gt;&lt;blockquote style=&quot;margin: 0 0 0 40px; border: none; padding: 0px;&quot;&gt;&lt;span style=&quot;white-space: pre;&quot;&gt;&#x9;&lt;/span&gt;t_redirection&lt;span style=&quot;white-space: pre;&quot;&gt;&#x9;&lt;/span&gt;*redirection&lt;br&gt;&lt;/blockquote&gt;&lt;blockquote style=&quot;margin: 0 0 0 40px; border: none; padding: 0px;&quot;&gt;&lt;span style=&quot;white-space: pre;&quot;&gt;&#x9;&lt;/span&gt;int&lt;span style=&quot;white-space: pre;&quot;&gt;&#x9;&lt;/span&gt;&lt;span style=&quot;white-space: pre;&quot;&gt;&#x9;&lt;/span&gt;p_pipe;&lt;/blockquote&gt;&lt;blockquote style=&quot;margin: 0 0 0 40px; border: none; padding: 0px;&quot;&gt;&lt;span style=&quot;white-space: pre;&quot;&gt;&#x9;&lt;/span&gt;struct s_command *next;&lt;br&gt;&lt;/blockquote&gt;" style="whiteSpace=wrap;html=1;rounded=0;align=left;" parent="1" vertex="1">
          <mxGeometry x="635" y="530" width="240" height="120" as="geometry" />
        </mxCell>
        <mxCell id="WgjbDh5-NHSsL8skq-T1-2" value="" style="edgeStyle=orthogonalEdgeStyle;rounded=0;orthogonalLoop=1;jettySize=auto;html=1;" edge="1" parent="1" source="fJmlveyHdBU51Vy1_YlL-45" target="fJmlveyHdBU51Vy1_YlL-105">
          <mxGeometry relative="1" as="geometry" />
        </mxCell>
        <mxCell id="fJmlveyHdBU51Vy1_YlL-45" value="&lt;blockquote style=&quot;margin: 0px 0px 0px 40px; border: none; padding: 0px;&quot;&gt;typedef struct t_redirection&lt;/blockquote&gt;&lt;blockquote style=&quot;margin: 0px 0px 0px 40px; border: none; padding: 0px;&quot;&gt;&lt;span style=&quot;white-space: pre;&quot;&gt;&#x9;&lt;/span&gt;int type;&lt;br&gt;&lt;/blockquote&gt;&lt;blockquote style=&quot;margin: 0px 0px 0px 40px; border: none; padding: 0px;&quot;&gt;&lt;span style=&quot;white-space: pre;&quot;&gt;&#x9;&lt;/span&gt;char *file;&lt;/blockquote&gt;&lt;blockquote style=&quot;margin: 0px 0px 0px 40px; border: none; padding: 0px;&quot;&gt;&lt;span style=&quot;white-space: pre;&quot;&gt;&#x9;&lt;/span&gt;struct s_command *next;&lt;/blockquote&gt;" style="whiteSpace=wrap;html=1;align=left;rounded=0;" parent="1" vertex="1">
          <mxGeometry x="890" y="955" width="240" height="80" as="geometry" />
        </mxCell>
        <mxCell id="fJmlveyHdBU51Vy1_YlL-77" value="" style="edgeStyle=orthogonalEdgeStyle;rounded=0;orthogonalLoop=1;jettySize=auto;html=1;" parent="1" source="fJmlveyHdBU51Vy1_YlL-48" target="fJmlveyHdBU51Vy1_YlL-76" edge="1">
          <mxGeometry relative="1" as="geometry" />
        </mxCell>
        <mxCell id="fJmlveyHdBU51Vy1_YlL-48" value="PIPE" style="ellipse;whiteSpace=wrap;html=1;rounded=0;" parent="1" vertex="1">
          <mxGeometry x="150" y="870" width="70" height="60" as="geometry" />
        </mxCell>
        <mxCell id="fJmlveyHdBU51Vy1_YlL-91" value="" style="edgeStyle=orthogonalEdgeStyle;rounded=0;orthogonalLoop=1;jettySize=auto;html=1;" parent="1" source="fJmlveyHdBU51Vy1_YlL-50" target="fJmlveyHdBU51Vy1_YlL-90" edge="1">
          <mxGeometry relative="1" as="geometry" />
        </mxCell>
        <mxCell id="fJmlveyHdBU51Vy1_YlL-93" value="" style="edgeStyle=orthogonalEdgeStyle;rounded=0;orthogonalLoop=1;jettySize=auto;html=1;" parent="1" source="fJmlveyHdBU51Vy1_YlL-50" target="fJmlveyHdBU51Vy1_YlL-92" edge="1">
          <mxGeometry relative="1" as="geometry" />
        </mxCell>
        <mxCell id="fJmlveyHdBU51Vy1_YlL-50" value="CMD" style="ellipse;whiteSpace=wrap;html=1;rounded=0;" parent="1" vertex="1">
          <mxGeometry x="262.49" y="1032.5" width="65.01" height="60" as="geometry" />
        </mxCell>
        <mxCell id="fJmlveyHdBU51Vy1_YlL-61" value="" style="edgeStyle=orthogonalEdgeStyle;rounded=0;orthogonalLoop=1;jettySize=auto;html=1;" parent="1" source="fJmlveyHdBU51Vy1_YlL-57" target="fJmlveyHdBU51Vy1_YlL-60" edge="1">
          <mxGeometry relative="1" as="geometry" />
        </mxCell>
        <mxCell id="fJmlveyHdBU51Vy1_YlL-57" value="&quot;-l&quot;&lt;div&gt;Token word&lt;/div&gt;" style="whiteSpace=wrap;html=1;rounded=0;" parent="1" vertex="1">
          <mxGeometry x="720" y="410" width="70" height="60" as="geometry" />
        </mxCell>
        <mxCell id="fJmlveyHdBU51Vy1_YlL-63" value="" style="edgeStyle=orthogonalEdgeStyle;rounded=0;orthogonalLoop=1;jettySize=auto;html=1;" parent="1" source="fJmlveyHdBU51Vy1_YlL-60" target="fJmlveyHdBU51Vy1_YlL-62" edge="1">
          <mxGeometry relative="1" as="geometry" />
        </mxCell>
        <mxCell id="fJmlveyHdBU51Vy1_YlL-60" value="&quot;&amp;gt;&quot;&lt;div&gt;&lt;div&gt;Token&amp;nbsp;&lt;/div&gt;&lt;div&gt;redirection OUT&lt;/div&gt;&lt;/div&gt;" style="whiteSpace=wrap;html=1;rounded=0;" parent="1" vertex="1">
          <mxGeometry x="810" y="408.75" width="70" height="62.5" as="geometry" />
        </mxCell>
        <mxCell id="fJmlveyHdBU51Vy1_YlL-64" value="" style="edgeStyle=orthogonalEdgeStyle;rounded=0;orthogonalLoop=1;jettySize=auto;html=1;" parent="1" source="fJmlveyHdBU51Vy1_YlL-62" target="fJmlveyHdBU51Vy1_YlL-32" edge="1">
          <mxGeometry relative="1" as="geometry" />
        </mxCell>
        <mxCell id="fJmlveyHdBU51Vy1_YlL-62" value="&quot;ex.txt&quot;&lt;div&gt;Token word&lt;/div&gt;" style="whiteSpace=wrap;html=1;rounded=0;" parent="1" vertex="1">
          <mxGeometry x="910" y="410" width="70" height="60" as="geometry" />
        </mxCell>
        <mxCell id="fJmlveyHdBU51Vy1_YlL-79" value="" style="edgeStyle=orthogonalEdgeStyle;rounded=0;orthogonalLoop=1;jettySize=auto;html=1;" parent="1" source="fJmlveyHdBU51Vy1_YlL-76" target="fJmlveyHdBU51Vy1_YlL-78" edge="1">
          <mxGeometry relative="1" as="geometry" />
        </mxCell>
        <mxCell id="fJmlveyHdBU51Vy1_YlL-102" value="" style="edgeStyle=orthogonalEdgeStyle;rounded=0;orthogonalLoop=1;jettySize=auto;html=1;" parent="1" source="fJmlveyHdBU51Vy1_YlL-76" target="fJmlveyHdBU51Vy1_YlL-50" edge="1">
          <mxGeometry relative="1" as="geometry" />
        </mxCell>
        <mxCell id="fJmlveyHdBU51Vy1_YlL-76" value="pipe sequence" style="ellipse;whiteSpace=wrap;html=1;rounded=0;" parent="1" vertex="1">
          <mxGeometry x="150" y="960" width="70" height="65" as="geometry" />
        </mxCell>
        <mxCell id="fJmlveyHdBU51Vy1_YlL-85" value="" style="edgeStyle=orthogonalEdgeStyle;rounded=0;orthogonalLoop=1;jettySize=auto;html=1;" parent="1" source="fJmlveyHdBU51Vy1_YlL-78" target="fJmlveyHdBU51Vy1_YlL-84" edge="1">
          <mxGeometry relative="1" as="geometry" />
        </mxCell>
        <mxCell id="fJmlveyHdBU51Vy1_YlL-86" value="" style="edgeStyle=orthogonalEdgeStyle;rounded=0;orthogonalLoop=1;jettySize=auto;html=1;" parent="1" source="fJmlveyHdBU51Vy1_YlL-78" target="fJmlveyHdBU51Vy1_YlL-84" edge="1">
          <mxGeometry relative="1" as="geometry" />
        </mxCell>
        <mxCell id="fJmlveyHdBU51Vy1_YlL-88" value="" style="edgeStyle=orthogonalEdgeStyle;rounded=0;orthogonalLoop=1;jettySize=auto;html=1;" parent="1" source="fJmlveyHdBU51Vy1_YlL-78" target="fJmlveyHdBU51Vy1_YlL-87" edge="1">
          <mxGeometry relative="1" as="geometry" />
        </mxCell>
        <mxCell id="fJmlveyHdBU51Vy1_YlL-78" value="PIPE" style="ellipse;whiteSpace=wrap;html=1;rounded=0;" parent="1" vertex="1">
          <mxGeometry x="60" y="1032.5" width="70" height="65" as="geometry" />
        </mxCell>
        <mxCell id="fJmlveyHdBU51Vy1_YlL-84" value="&quot;ls&quot;&lt;div&gt;Token word&lt;/div&gt;" style="whiteSpace=wrap;html=1;rounded=0;" parent="1" vertex="1">
          <mxGeometry x="-9.999999999999993" y="1160" width="80" height="60" as="geometry" />
        </mxCell>
        <mxCell id="fJmlveyHdBU51Vy1_YlL-87" value="&quot;-l&quot;&lt;div&gt;Token word&lt;/div&gt;" style="whiteSpace=wrap;html=1;rounded=0;" parent="1" vertex="1">
          <mxGeometry x="115" y="1160" width="75" height="60" as="geometry" />
        </mxCell>
        <mxCell id="fJmlveyHdBU51Vy1_YlL-90" value="&quot;grep&quot;&lt;div&gt;Token word&lt;/div&gt;" style="whiteSpace=wrap;html=1;rounded=0;" parent="1" vertex="1">
          <mxGeometry x="205.93" y="1160" width="80" height="60" as="geometry" />
        </mxCell>
        <mxCell id="fJmlveyHdBU51Vy1_YlL-92" value="&quot;..&quot;&lt;div&gt;Token word&lt;/div&gt;" style="whiteSpace=wrap;html=1;rounded=0;" parent="1" vertex="1">
          <mxGeometry x="320" y="1160" width="80" height="60" as="geometry" />
        </mxCell>
        <mxCell id="fJmlveyHdBU51Vy1_YlL-101" value="" style="edgeStyle=orthogonalEdgeStyle;rounded=0;orthogonalLoop=1;jettySize=auto;html=1;" parent="1" source="fJmlveyHdBU51Vy1_YlL-95" target="fJmlveyHdBU51Vy1_YlL-48" edge="1">
          <mxGeometry relative="1" as="geometry" />
        </mxCell>
        <mxCell id="fJmlveyHdBU51Vy1_YlL-104" value="" style="edgeStyle=orthogonalEdgeStyle;rounded=0;orthogonalLoop=1;jettySize=auto;html=1;" parent="1" source="fJmlveyHdBU51Vy1_YlL-95" target="fJmlveyHdBU51Vy1_YlL-103" edge="1">
          <mxGeometry relative="1" as="geometry" />
        </mxCell>
        <mxCell id="fJmlveyHdBU51Vy1_YlL-95" value="Pipe sequence" style="ellipse;whiteSpace=wrap;html=1;rounded=0;" parent="1" vertex="1">
          <mxGeometry x="343.44" y="800" width="125" height="60" as="geometry" />
        </mxCell>
        <mxCell id="fJmlveyHdBU51Vy1_YlL-106" value="" style="edgeStyle=orthogonalEdgeStyle;rounded=0;orthogonalLoop=1;jettySize=auto;html=1;" parent="1" source="fJmlveyHdBU51Vy1_YlL-103" target="fJmlveyHdBU51Vy1_YlL-105" edge="1">
          <mxGeometry relative="1" as="geometry" />
        </mxCell>
        <mxCell id="fJmlveyHdBU51Vy1_YlL-108" value="" style="edgeStyle=orthogonalEdgeStyle;rounded=0;orthogonalLoop=1;jettySize=auto;html=1;" parent="1" source="fJmlveyHdBU51Vy1_YlL-103" target="fJmlveyHdBU51Vy1_YlL-107" edge="1">
          <mxGeometry relative="1" as="geometry" />
        </mxCell>
        <mxCell id="fJmlveyHdBU51Vy1_YlL-103" value="CMD" style="ellipse;whiteSpace=wrap;html=1;rounded=0;" parent="1" vertex="1">
          <mxGeometry x="592.5" y="870" width="67.5" height="60" as="geometry" />
        </mxCell>
        <mxCell id="fJmlveyHdBU51Vy1_YlL-123" value="" style="edgeStyle=orthogonalEdgeStyle;rounded=0;orthogonalLoop=1;jettySize=auto;html=1;" parent="1" source="fJmlveyHdBU51Vy1_YlL-105" target="fJmlveyHdBU51Vy1_YlL-117" edge="1">
          <mxGeometry relative="1" as="geometry" />
        </mxCell>
        <mxCell id="fJmlveyHdBU51Vy1_YlL-142" value="" style="edgeStyle=orthogonalEdgeStyle;rounded=0;orthogonalLoop=1;jettySize=auto;html=1;" parent="1" source="fJmlveyHdBU51Vy1_YlL-105" target="fJmlveyHdBU51Vy1_YlL-140" edge="1">
          <mxGeometry relative="1" as="geometry" />
        </mxCell>
        <mxCell id="fJmlveyHdBU51Vy1_YlL-105" value="Redirections" style="ellipse;whiteSpace=wrap;html=1;rounded=0;" parent="1" vertex="1">
          <mxGeometry x="680" y="953.75" width="90" height="82.5" as="geometry" />
        </mxCell>
        <mxCell id="fJmlveyHdBU51Vy1_YlL-120" value="" style="edgeStyle=orthogonalEdgeStyle;rounded=0;orthogonalLoop=1;jettySize=auto;html=1;" parent="1" source="fJmlveyHdBU51Vy1_YlL-107" target="fJmlveyHdBU51Vy1_YlL-113" edge="1">
          <mxGeometry relative="1" as="geometry" />
        </mxCell>
        <mxCell id="fJmlveyHdBU51Vy1_YlL-121" value="" style="edgeStyle=orthogonalEdgeStyle;rounded=0;orthogonalLoop=1;jettySize=auto;html=1;" parent="1" source="fJmlveyHdBU51Vy1_YlL-107" target="fJmlveyHdBU51Vy1_YlL-115" edge="1">
          <mxGeometry relative="1" as="geometry" />
        </mxCell>
        <mxCell id="fJmlveyHdBU51Vy1_YlL-107" value="CMD" style="ellipse;whiteSpace=wrap;html=1;rounded=0;" parent="1" vertex="1">
          <mxGeometry x="490" y="953.75" width="75" height="77.5" as="geometry" />
        </mxCell>
        <mxCell id="fJmlveyHdBU51Vy1_YlL-113" value="&quot;wc&quot;&lt;div&gt;Token word&lt;/div&gt;" style="whiteSpace=wrap;html=1;rounded=0;" parent="1" vertex="1">
          <mxGeometry x="455" y="1180" width="70" height="60" as="geometry" />
        </mxCell>
        <mxCell id="fJmlveyHdBU51Vy1_YlL-115" value="&quot;-l&quot;&lt;div&gt;Token word&lt;/div&gt;" style="whiteSpace=wrap;html=1;rounded=0;" parent="1" vertex="1">
          <mxGeometry x="560" y="1180" width="70" height="60" as="geometry" />
        </mxCell>
        <mxCell id="fJmlveyHdBU51Vy1_YlL-117" value="&quot;&amp;gt;&quot;&lt;div&gt;&lt;div&gt;Token&amp;nbsp;&lt;/div&gt;&lt;div&gt;redirection OUT&lt;/div&gt;&lt;/div&gt;" style="whiteSpace=wrap;html=1;rounded=0;" parent="1" vertex="1">
          <mxGeometry x="650" y="1180" width="70" height="62.5" as="geometry" />
        </mxCell>
        <mxCell id="fJmlveyHdBU51Vy1_YlL-118" value="&quot;ex.txt&quot;&lt;div&gt;Token word&lt;/div&gt;" style="whiteSpace=wrap;html=1;rounded=0;" parent="1" vertex="1">
          <mxGeometry x="740" y="1275" width="70" height="60" as="geometry" />
        </mxCell>
        <mxCell id="fJmlveyHdBU51Vy1_YlL-126" value="1" style="ellipse;whiteSpace=wrap;html=1;aspect=fixed;fillColor=#0050ef;fontColor=#ffffff;strokeColor=#001DBC;" parent="1" vertex="1">
          <mxGeometry x="-20" y="1220" width="30" height="30" as="geometry" />
        </mxCell>
        <mxCell id="fJmlveyHdBU51Vy1_YlL-128" value="2" style="ellipse;whiteSpace=wrap;html=1;aspect=fixed;fillColor=#0050ef;fontColor=#ffffff;strokeColor=#001DBC;" parent="1" vertex="1">
          <mxGeometry x="115" y="1220" width="30" height="30" as="geometry" />
        </mxCell>
        <mxCell id="fJmlveyHdBU51Vy1_YlL-129" value="3" style="ellipse;whiteSpace=wrap;html=1;aspect=fixed;fillColor=#0050ef;fontColor=#ffffff;strokeColor=#001DBC;" parent="1" vertex="1">
          <mxGeometry x="130" y="1050" width="30" height="30" as="geometry" />
        </mxCell>
        <mxCell id="fJmlveyHdBU51Vy1_YlL-131" value="4" style="ellipse;whiteSpace=wrap;html=1;aspect=fixed;fillColor=#0050ef;fontColor=#ffffff;strokeColor=#001DBC;" parent="1" vertex="1">
          <mxGeometry x="205" y="1220" width="30" height="30" as="geometry" />
        </mxCell>
        <mxCell id="fJmlveyHdBU51Vy1_YlL-132" value="5" style="ellipse;whiteSpace=wrap;html=1;aspect=fixed;fillColor=#0050ef;fontColor=#ffffff;strokeColor=#001DBC;" parent="1" vertex="1">
          <mxGeometry x="320" y="1220" width="30" height="30" as="geometry" />
        </mxCell>
        <mxCell id="fJmlveyHdBU51Vy1_YlL-133" value="6" style="ellipse;whiteSpace=wrap;html=1;aspect=fixed;fillColor=#0050ef;fontColor=#ffffff;strokeColor=#001DBC;" parent="1" vertex="1">
          <mxGeometry x="220" y="885" width="30" height="30" as="geometry" />
        </mxCell>
        <mxCell id="fJmlveyHdBU51Vy1_YlL-134" value="7" style="ellipse;whiteSpace=wrap;html=1;aspect=fixed;fillColor=#0050ef;fontColor=#ffffff;strokeColor=#001DBC;" parent="1" vertex="1">
          <mxGeometry x="455" y="1242.5" width="30" height="30" as="geometry" />
        </mxCell>
        <mxCell id="fJmlveyHdBU51Vy1_YlL-135" value="8" style="ellipse;whiteSpace=wrap;html=1;aspect=fixed;fillColor=#0050ef;fontColor=#ffffff;strokeColor=#001DBC;" parent="1" vertex="1">
          <mxGeometry x="561.87" y="1242.5" width="30" height="30" as="geometry" />
        </mxCell>
        <mxCell id="fJmlveyHdBU51Vy1_YlL-136" value="9" style="ellipse;whiteSpace=wrap;html=1;aspect=fixed;fillColor=#0050ef;fontColor=#ffffff;strokeColor=#001DBC;" parent="1" vertex="1">
          <mxGeometry x="650" y="1242.5" width="30" height="30" as="geometry" />
        </mxCell>
        <mxCell id="fJmlveyHdBU51Vy1_YlL-137" value="10" style="ellipse;whiteSpace=wrap;html=1;aspect=fixed;fillColor=#0050ef;fontColor=#ffffff;strokeColor=#001DBC;" parent="1" vertex="1">
          <mxGeometry x="740" y="1240" width="30" height="30" as="geometry" />
        </mxCell>
        <mxCell id="fJmlveyHdBU51Vy1_YlL-144" value="" style="edgeStyle=orthogonalEdgeStyle;rounded=0;orthogonalLoop=1;jettySize=auto;html=1;" parent="1" source="fJmlveyHdBU51Vy1_YlL-140" target="fJmlveyHdBU51Vy1_YlL-118" edge="1">
          <mxGeometry relative="1" as="geometry" />
        </mxCell>
        <mxCell id="fJmlveyHdBU51Vy1_YlL-140" value="FILE" style="whiteSpace=wrap;html=1;rounded=0;" parent="1" vertex="1">
          <mxGeometry x="740" y="1180" width="70" height="60" as="geometry" />
        </mxCell>
      </root>
    </mxGraphModel>
  </diagram>
</mxfile>
